<?xml version="1.0" standalone="no"?><!DOCTYPE svg PUBLIC "-//W3C//DTD SVG 1.1//EN" "http://www.w3.org/Graphics/SVG/1.1/DTD/svg11.dtd"><svg t="1698896712664" class="icon" viewBox="0 0 1024 1024" version="1.1" xmlns="http://www.w3.org/2000/svg" p-id="4298" xmlns:xlink="http://www.w3.org/1999/xlink" width="200" height="200"><path d="M412.672 227.84c11.264 6.656 26.112 3.072 32.768-8.192l39.424-66.56c5.632-9.728 15.872-15.36 27.136-15.36 11.264 0 20.992 5.632 27.136 15.36l274.432 458.752c4.608 7.168 12.288 11.776 20.48 11.776 1.024 0 2.56 0 3.584-0.512 9.728-1.536 17.408-8.704 19.456-18.432l21.504-93.696c3.072-12.8-5.12-25.6-17.92-28.672-12.8-3.072-25.6 5.12-28.672 17.92l-8.192 35.328L580.096 128c-14.336-24.576-39.936-38.912-68.608-38.912-28.16 0-53.76 14.336-68.608 38.912l-39.424 66.56c-6.144 11.776-2.56 26.624 9.216 33.28zM875.52 719.872l37.376 62.464c5.632 9.728 6.144 21.504 0.512 31.744-5.632 9.728-15.872 15.872-27.136 15.872H338.944c-10.24 0-19.456 6.656-22.528 16.384-3.584 9.728 0 20.48 7.68 26.624l71.68 56.32c4.608 3.584 9.728 5.12 14.848 5.12 7.168 0 14.336-3.072 18.944-9.216 8.192-10.24 6.656-25.6-4.096-33.792l-16.896-13.312H885.76c29.184 0 54.784-14.848 69.12-40.448 14.336-25.088 13.824-55.296-0.512-79.872l-37.376-62.464c-6.656-11.264-21.504-15.36-32.768-8.192-11.264 6.656-15.36 21.504-8.704 32.768zM138.24 878.08h73.216c13.312 0 24.064-10.752 24.064-24.064s-10.752-24.064-24.064-24.064H138.24c-11.264 0-21.504-6.144-27.136-15.872-5.632-9.728-5.632-22.016 0.512-31.744l273.408-461.312c5.12-8.192 4.608-18.944-1.536-26.624-5.632-7.68-15.872-11.264-25.088-8.704l-88.576 22.528c-12.8 3.072-20.48 16.384-17.408 29.184 3.072 12.8 16.384 20.48 29.184 17.408l32.768-8.192L69.632 757.76c-14.848 25.088-14.848 54.784-0.512 79.872 14.336 25.6 39.936 40.448 69.12 40.448z" fill="#ACBEC9" p-id="4299"></path><path d="M341.504 632.832c2.048-1.024 3.584-2.56 5.12-4.096l41.472 17.408c-2.56 11.776-1.024 24.576 5.632 35.328 6.144 10.24 15.872 16.896 26.112 19.968l-5.12 38.912c-2.048 0.512-4.096 1.536-6.144 3.072-13.312 8.192-17.408 25.6-9.216 38.912 8.192 13.312 25.6 17.408 38.912 9.216 13.312-8.192 17.408-25.6 9.216-38.912-2.048-3.584-5.12-6.656-8.704-8.704l5.632-41.472c5.12-1.024 9.728-3.072 14.336-5.632 7.168-4.608 12.288-10.24 15.872-17.408l70.656 17.408c0.512 1.536 1.024 3.072 2.048 4.608 7.168 11.776 23.04 15.872 34.816 8.192 4.096-2.56 7.168-6.144 9.216-10.24l72.704-17.92s0 0.512 0.512 0.512c11.776 18.944 34.816 26.624 54.784 19.456l18.432 26.624c-4.096 7.68-4.608 17.408 0.512 25.6 7.168 11.776 23.04 15.872 34.816 8.192 11.776-7.168 15.872-23.04 8.192-34.816-5.12-8.192-14.336-12.8-23.552-11.776l-18.944-27.136c13.312-14.848 15.872-37.376 4.608-55.296-13.824-22.016-42.496-28.672-64.512-15.36-14.336 9.216-22.528 24.576-22.016 40.96l-67.072 16.384v-0.512c-7.168-11.776-23.04-15.872-34.816-8.192-3.072 2.048-5.12 4.096-7.168 6.656l-68.096-16.384c0-8.192-2.048-16.384-6.656-24.064-4.608-7.168-10.24-12.288-16.896-15.872l6.144-37.888c3.584-0.512 7.168-2.048 10.752-4.096 13.312-8.192 18.432-24.064 13.824-37.888l33.792-23.552c14.848 12.8 37.376 15.36 54.784 4.096 3.072-2.048 5.632-4.096 8.192-6.656l48.128 22.016c0 6.144 1.536 11.776 4.608 17.408 9.728 15.36 30.208 20.48 45.568 10.752s20.48-30.208 10.752-45.568-30.208-20.48-45.568-10.752c-2.56 1.536-4.608 3.584-6.656 5.632l-44.544-20.48c3.072-12.288 2.048-25.6-5.12-36.864-5.632-9.728-14.848-15.872-24.576-19.456l6.656-43.52c4.096-0.512 7.68-2.048 11.264-4.096 15.36-9.728 20.48-30.208 10.752-45.568s-30.208-20.48-45.568-10.752-20.48 30.208-10.752 45.568c2.56 4.608 6.656 7.68 10.752 10.752l-7.168 46.08c-5.632 1.024-10.752 3.072-15.872 6.144-3.584 2.048-6.656 5.12-9.216 8.192L477.184 424.96c1.024-7.68 0-15.872-4.608-23.04-9.728-15.36-30.208-20.48-45.568-10.752s-20.48 30.208-10.752 45.568 30.208 20.48 45.568 10.752c1.024-0.512 2.048-1.536 2.56-2.048l40.448 21.504c-2.048 8.704-1.536 17.92 1.536 26.624l-35.328 24.576c-10.24-5.632-23.04-6.144-33.792 0.512-15.36 9.728-20.48 30.208-10.752 45.568 3.072 4.608 6.656 8.192 11.264 10.752l-6.144 35.84c-8.192 0-16.384 2.048-24.064 6.656-3.584 2.048-6.656 5.12-9.216 7.68l-42.496-17.92c0.512-6.656-1.024-13.824-4.608-19.968-9.728-15.36-30.208-20.48-45.568-10.752s-20.48 30.208-10.752 45.568c0.512 1.024 1.024 1.536 1.536 2.048l-30.72 51.712c-5.12-0.512-10.24 1.024-14.848 3.584-11.776 7.168-15.872 23.04-8.192 34.816 7.168 11.776 23.04 15.872 34.816 8.192 11.776-7.168 15.36-22.528 8.704-34.304l32.256-51.712c7.68 2.048 15.872 0.512 23.04-3.584z" fill="#EB5F9D" p-id="4300"></path></svg>