<?xml version="1.0" standalone="no"?><!DOCTYPE svg PUBLIC "-//W3C//DTD SVG 1.1//EN" "http://www.w3.org/Graphics/SVG/1.1/DTD/svg11.dtd"><svg t="1698897002524" class="icon" viewBox="0 0 1024 1024" version="1.1" xmlns="http://www.w3.org/2000/svg" p-id="6962" xmlns:xlink="http://www.w3.org/1999/xlink" width="200" height="200"><path d="M645.302 446.52c0.002 109.608-89.17 198.782-198.78 198.78h-67.824v81.096h67.824c154.324 0 279.876-125.552 279.876-279.876l0.002-216.744c-0.002-53.096 20.676-103.016 58.22-140.56 15.834-15.834 15.834-41.508 0-57.342-15.834-15.834-41.508-15.834-57.342 0-52.862 52.862-81.974 123.144-81.976 197.902V446.52zM297.602 645.3h-67.826c-74.758 0.002-145.04 29.114-197.9 81.974-15.834 15.834-15.834 41.508 0 57.342 15.834 15.834 41.508 15.834 57.342 0 37.544-37.544 87.464-58.222 140.558-58.22h67.826V645.3z" fill="#FE90C5" p-id="6963"></path><path d="M378.696 577.476c-0.002-109.608 89.17-198.782 198.78-198.78h67.824V297.6h-67.824c-154.324 0-279.876 125.552-279.876 279.876v216.746c0.002 53.096-20.676 103.016-58.22 140.558-15.834 15.834-15.834 41.508 0 57.342 15.834 15.834 41.508 15.834 57.342 0 52.86-52.86 81.972-123.142 81.974-197.9V577.476z" fill="#DAC7FF" p-id="6964"></path><path d="M992.122 239.38c-15.834-15.834-41.508-15.834-57.342 0-37.544 37.544-87.464 58.22-140.558 58.22h-67.826v81.096h67.826c74.758-0.002 145.04-29.114 197.9-81.974 15.834-15.834 15.834-41.506 0-57.342z" fill="#FE90C5" p-id="6965"></path><path d="M630.126 630.248l-0.158 0.156c-7.8 7.8-7.756 20.392 0.032 28.208a19.894 19.894 0 0 0 14.14 5.854c5.128 0 10.26-1.95 14.174-5.836l0.158-0.156c7.8-7.8 7.756-20.392-0.032-28.208-7.788-7.816-20.488-7.79-28.314-0.018z" p-id="6966"></path><path d="M1006.264 225.238c-18.958-18.956-47.458-22.672-70.176-11.184l-126.126-126.126a60.25 60.25 0 0 0 6.532-27.382c0-16.172-6.298-31.376-17.734-42.814-23.606-23.606-62.018-23.602-85.626 0-56.638 56.64-87.832 131.946-87.834 212.044v47.826h-47.824c-165.352 0-299.876 134.524-299.876 299.876v47.822h-47.826c-80.1 0.002-155.406 31.196-212.042 87.832C6.298 724.568 0 739.774 0 755.946s6.298 31.376 17.734 42.814c11.804 11.802 27.308 17.706 42.812 17.706s31.01-5.902 42.814-17.706a178.8 178.8 0 0 1 51.774-36.102l106.206 106.204a177.666 177.666 0 0 1-22.116 35.998l-30.794-30.794c-7.812-7.806-20.474-7.808-28.284 0-7.81 7.81-7.812 20.474 0 28.286l33.852 33.852c-11.418 22.7-7.682 51.134 11.244 70.062 11.804 11.802 27.308 17.706 42.812 17.706s31.01-5.902 42.814-17.706c56.636-56.638 87.83-131.944 87.832-212.044v-47.824h47.824c49.37 0 98.354-12.314 141.656-35.614 9.726-5.234 13.37-17.364 8.136-27.09-5.232-9.726-17.358-13.366-27.088-8.136-37.496 20.176-79.926 30.84-122.704 30.84H398.7V665.3H446.528c58.35 0 113.27-22.782 154.632-64.142 41.364-41.366 64.144-96.284 64.144-154.636V229.776c0.002-69.414 27.034-134.676 76.118-183.76 8.012-8.01 21.046-8.014 29.058 0 3.88 3.88 6.018 9.042 6.018 14.53s-2.136 10.646-6.018 14.528c-41.324 41.326-64.08 96.268-64.078 154.704l-0.002 216.744c0 43.952-11.224 87.406-32.458 125.668-5.36 9.658-1.876 21.832 7.782 27.194 9.662 5.358 21.834 1.876 27.192-7.784 24.522-44.186 37.482-94.354 37.482-145.078V398.7h47.826c80.1-0.002 155.406-31.196 212.042-87.832 11.436-11.436 17.734-26.64 17.734-42.812-0.002-16.178-6.3-31.382-17.736-42.818zM622.61 477.312l-75.924-75.926a180.006 180.006 0 0 1 30.79-2.69h47.824v47.824a179.81 179.81 0 0 1-2.69 30.792zM75.076 770.474c-8.012 8.01-21.046 8.014-29.058 0-3.88-3.88-6.018-9.042-6.018-14.53s2.136-10.646 6.018-14.528c49.082-49.084 114.342-76.116 183.758-76.118h47.826V706.392h-47.824c-58.442 0.004-113.382 22.762-154.702 64.082z m123.174-21.272a180.814 180.814 0 0 1 31.528-2.806h47.824v47.824c0 10.688-0.982 21.22-2.806 31.528l-76.546-76.546z m160.448 45.018c-0.002 69.416-27.034 134.678-76.118 183.76-8.012 8.01-21.046 8.008-29.056 0.002-8.01-8.014-8.01-21.048 0-29.058 41.324-41.324 64.08-96.266 64.078-154.704l0.002-216.742c0-143.296 116.58-259.876 259.876-259.876h47.824v41.096H577.476c-58.35 0-113.27 22.782-154.632 64.142-41.364 41.366-64.144 96.284-64.144 154.636V794.22h-0.002z m165.024-186.428l-107.516-107.516a178.14 178.14 0 0 1 22.602-35.512l120.426 120.428a178.336 178.336 0 0 1-35.512 22.6z m-77.2 17.508h-47.824v-47.824c0-11.8 1.148-23.428 3.378-34.76l79.206 79.206a179.93 179.93 0 0 1-34.76 3.378z m140.712-68.68l-119.856-119.858a177.916 177.916 0 0 1 36.086-22.026l105.796 105.798a177.628 177.628 0 0 1-22.026 36.086z m159.164-326.844c0-10.636 0.974-21.116 2.78-31.378l76.424 76.422a180.72 180.72 0 0 1-31.38 2.78l-47.824 0.002v-47.826z m122.344 31.616l-106.138-106.138a177.596 177.596 0 0 1 22.094-36.02l120.064 120.064a177.576 177.576 0 0 1-36.02 22.094z m109.238 21.188c-49.082 49.084-114.342 76.116-183.758 76.118h-47.826V317.602l47.824-0.002h0.008c58.434 0 113.374-22.756 154.692-64.076 8.014-8.012 21.048-8.012 29.058 0a20.414 20.414 0 0 1 6.018 14.53 20.396 20.396 0 0 1-6.016 14.526z" p-id="6967"></path><path d="M144.04 817.956c-5.26 0-10.42 2.14-14.14 5.862-3.72 3.718-5.86 8.878-5.86 14.138s2.14 10.42 5.86 14.14c3.72 3.72 8.88 5.86 14.14 5.86s10.42-2.138 14.14-5.86 5.86-8.88 5.86-14.14-2.14-10.42-5.86-14.138a20.16 20.16 0 0 0-14.14-5.862z" p-id="6968"></path></svg>