<?xml version="1.0" standalone="no"?><!DOCTYPE svg PUBLIC "-//W3C//DTD SVG 1.1//EN" "http://www.w3.org/Graphics/SVG/1.1/DTD/svg11.dtd"><svg t="1698286650940" class="icon" viewBox="0 0 1024 1024" version="1.1" xmlns="http://www.w3.org/2000/svg" p-id="6822" xmlns:xlink="http://www.w3.org/1999/xlink" width="200" height="200"><path d="M397.1 561.6c-3.6 0-7.1-1.4-9.6-4L297 467.2c-5.3-5.3-5.3-14 0-19.3L678.9 66c2.6-2.6 6-4 9.6-4 3.6 0 7.1 1.4 9.6 4l90.5 90.5c5.3 5.3 5.3 14 0 19.3L406.7 557.6c-2.5 2.6-6 4-9.6 4z m-71.2-104.1l71.2 71.2 362.6-362.6-71.2-71.2-362.6 362.6z" fill="#41B3F9" p-id="6823"></path><path d="M474.2 484.5c-3.5 0-7-1.3-9.6-4L374.1 390c-5.3-5.3-5.3-14 0-19.3 5.3-5.3 14-5.3 19.3 0l90.5 90.5c5.3 5.3 5.3 14 0 19.3-2.7 2.7-6.2 4-9.7 4zM826.6 962H197.4c-42.9 0-77.7-34.9-77.7-77.7 0-42.9 34.9-77.7 77.7-77.7h629.1c42.9 0 77.7 34.9 77.7 77.7 0.1 42.8-34.8 77.7-77.6 77.7zM197.4 833.8c-27.8 0-50.5 22.6-50.5 50.5 0 27.8 22.6 50.5 50.5 50.5h629.1c27.8 0 50.5-22.6 50.5-50.5 0-27.8-22.6-50.5-50.5-50.5H197.4z" fill="#41B3F9" p-id="6824"></path><path d="M708.7 831.6H448.4c-7.2 0-13.2-5.6-13.6-12.8-0.2-3.4-0.3-6.3-0.3-9.1 0-79.4 64.6-144 144-144s144 64.6 144 144c0 2.8-0.1 5.7-0.3 9.1-0.4 7.2-6.3 12.8-13.5 12.8z m-246.8-27.3h233.3C692.4 742.5 641.1 693 578.5 693c-62.5 0-113.8 49.5-116.6 111.3z" fill="#41B3F9" p-id="6825"></path><path d="M572.3 691.7c-6.2 0-11.8-4.3-13.3-10.6-1.7-7.3 2.9-14.7 10.3-16.3 84.6-19.3 146-96.2 146-182.8 0-66.4-35.9-128.5-93.7-162.2-6.5-3.8-8.7-12.1-4.9-18.6 3.8-6.5 12.1-8.7 18.6-4.9C701.5 334.8 742.6 406 742.6 482c0 48.8-17 96.7-47.8 134.8-30.4 37.5-72.8 64-119.4 74.7-1.1 0.1-2.1 0.2-3.1 0.2z" fill="#41B3F9" p-id="6826"></path><path d="M590.7 263.9m-90.4 0a90.4 90.4 0 1 0 180.8 0 90.4 90.4 0 1 0-180.8 0Z" fill="#FFFF27" p-id="6827"></path><path d="M590.7 367.9c-57.3 0-104-46.7-104-104s46.7-104 104-104 104 46.7 104 104-46.6 104-104 104z m0-180.7c-42.3 0-76.7 34.4-76.7 76.7 0 42.3 34.4 76.7 76.7 76.7 42.3 0 76.7-34.4 76.7-76.7 0.1-42.3-34.4-76.7-76.7-76.7z" fill="#41B3F9" p-id="6828"></path><path d="M572.3 691.7h-342c-7.5 0-13.6-6.1-13.6-13.6s6.1-13.6 13.6-13.6h342c7.5 0 13.6 6.1 13.6 13.6s-6.1 13.6-13.6 13.6z" fill="#41B3F9" p-id="6829"></path></svg>